<?xml version="1.0" encoding="UTF-8" standalone="no"?>
<svg
   xml:space="preserve"
   style="image-rendering:optimizeQuality;shape-rendering:geometricPrecision;text-rendering:geometricPrecision"
   viewBox="0 0 76.945359 69.192945"
   x="0px"
   y="0px"
   fill-rule="evenodd"
   clip-rule="evenodd"
   version="1.1"
   id="svg24"
   sodipodi:docname="logo_apico.svg"
   width="76.945358"
   height="69.192947"
   inkscape:export-filename="/home/olivier/Downloads/apico-256px.png"
   inkscape:export-xdpi="319.10767"
   inkscape:export-ydpi="319.10767"
   inkscape:version="1.1.2 (0a00cf5339, 2022-02-04)"
   xmlns:inkscape="http://www.inkscape.org/namespaces/inkscape"
   xmlns:sodipodi="http://sodipodi.sourceforge.net/DTD/sodipodi-0.dtd"
   xmlns="http://www.w3.org/2000/svg"
   xmlns:svg="http://www.w3.org/2000/svg"><sodipodi:namedview
     id="namedview26"
     pagecolor="#ffffff"
     bordercolor="#666666"
     borderopacity="1.0"
     inkscape:pageshadow="2"
     inkscape:pageopacity="0.0"
     inkscape:pagecheckerboard="true"
     showgrid="false"
     fit-margin-top="0"
     fit-margin-left="0"
     fit-margin-right="0"
     fit-margin-bottom="0"
     inkscape:zoom="8.8337486"
     inkscape:cx="11.263621"
     inkscape:cy="32.602241"
     inkscape:window-width="1920"
     inkscape:window-height="992"
     inkscape:window-x="0"
     inkscape:window-y="32"
     inkscape:window-maximized="1"
     inkscape:current-layer="svg24" /><defs
     id="defs4"><style
       type="text/css"
       id="style2">
   
    .fil1 {fill:black}
    .fil0 {fill:black;fill-rule:nonzero}
   
  </style></defs><g
     id="g13026"><g
       id="g3640"
       transform="matrix(22.054536,0,0,22.054536,-8.6567772,-0.55135249)"><path
         class="fil0"
         d="m 1.9961642,0.73156291 c 0.065565,0 0.1190381,0.0534273 0.1190381,0.11899617 0,0.0655689 -0.053466,0.11903807 -0.1190381,0.11903807 -0.065565,0 -0.1190381,-0.0534703 -0.1190381,-0.11903807 0,-0.0655689 0.053466,-0.11899617 0.1190381,-0.11899617 z m 0,0.0506358 c -0.037865,0 -0.068358,0.0305001 -0.068358,0.0683604 0,0.0378603 0.030504,0.0683604 0.068358,0.0683604 0.037865,0 0.068358,-0.0305001 0.068358,-0.0683604 0,-0.0378603 -0.030504,-0.0683604 -0.068358,-0.0683604 z"
         id="path8"
         style="stroke-width:10.7448" /><path
         class="fil0"
         d="m 2.269264,0.73156291 c 0.065565,0 0.1190381,0.0534273 0.1190381,0.11899617 0,0.0655689 -0.053466,0.11903807 -0.1190381,0.11903807 -0.065565,0 -0.1189962,-0.0534703 -0.1189962,-0.11903807 0,-0.0655689 0.053423,-0.11899617 0.1189962,-0.11899617 z m 0,0.0506358 c -0.037865,0 -0.068358,0.0305001 -0.068358,0.0683604 0,0.0378603 0.030504,0.0683604 0.068358,0.0683604 0.037865,0 0.068358,-0.0305001 0.068358,-0.0683604 0,-0.0378184 -0.030504,-0.0683604 -0.068358,-0.0683604 z"
         id="path10"
         style="stroke-width:10.7448" /><path
         class="fil1"
         d="m 2.2514599,0.82661651 c 0.01904,0 0.03448,0.0153983 0.03448,0.0344338 0,0.0190354 -0.01544,0.0344338 -0.03448,0.0344338 -0.01904,0 -0.034437,-0.0153983 -0.034437,-0.0344338 0,-0.0190354 0.015397,-0.0344338 0.034437,-0.0344338 z"
         id="path12"
         style="stroke-width:10.7448" /><path
         class="fil1"
         d="m 2.0139683,0.82661651 c 0.01904,0 0.034437,0.0153983 0.034437,0.0344338 0,0.0190354 -0.015397,0.0344338 -0.034437,0.0344338 -0.01904,0 -0.034437,-0.0153983 -0.034437,-0.0344338 0,-0.0190354 0.015397,-0.0344338 0.034437,-0.0344338 z"
         id="path14"
         style="stroke-width:10.7448" /><path
         class="fil1"
         d="m 2.207632,1.0032702 c 0.00541,0.00668 0.00846,0.014171 0.00846,0.022125 0,0.027115 -0.035447,0.049113 -0.079146,0.049113 -0.043699,0 -0.079146,-0.021997 -0.079146,-0.049113 0,-0.00795 0.00305,-0.01544 0.00846,-0.022125 0.013076,0.016032 0.039809,0.027032 0.07069,0.027032 0.030923,0 0.057613,-0.010998 0.070681,-0.027032 z"
         id="path16"
         style="stroke-width:10.7448" /><g
         id="g3628"><path
           class="fil0"
           d="m 2.3780655,1.0500142 c 0.020555,0.010068 0.040357,0.021321 0.059397,0.033673 0.017095,-0.069334 0.042431,-0.13964014 0.075976,-0.208931 C 2.5472845,0.8048734 2.5894585,0.7360048 2.6398801,0.67022532 2.7860766,0.47961097 2.9745753,0.34948967 3.1609595,0.29348149 3.3501351,0.23658471 3.5377882,0.25549443 3.6788659,0.36366095 3.8199437,0.47182746 3.8869083,0.64818565 3.8810288,0.84565302 3.8752757,1.0403278 3.7986271,1.2560269 3.6524693,1.4465983 3.5839821,1.5358981 3.5062308,1.6118732 3.4237411,1.6732119 3.5379999,1.7920394 3.6128748,1.9287601 3.6417664,2.057866 3.6729047,2.1971677 3.6509036,2.3282195 3.5679928,2.4205654 3.4813577,2.5170104 3.3456094,2.5518289 3.1962829,2.5302555 3.0505516,2.509142 2.8910305,2.4338105 2.7526174,2.3094806 2.6950899,2.2578305 2.6454276,2.201356 2.604475,2.142768 2.5642036,2.0851975 2.5323883,2.0257177 2.5097599,1.9667063 2.4410578,2.0293591 2.3567103,2.0751275 2.2632222,2.0975046 L 2.1369497,2.7772595 2.0110586,2.0995772 C 1.9168914,2.0786787 1.8316124,2.0340986 1.7618982,1.9723323 1.7389258,2.0306657 1.7071965,2.0892558 1.6673549,2.1457711 1.6268686,2.2031804 1.5779262,2.2585912 1.5212433,2.3094806 1.3828302,2.4338072 1.223351,2.5091474 1.0775778,2.5302555 0.92829319,2.551831 0.79254485,2.517018 0.70586787,2.4205654 0.62295586,2.3282248 0.6009581,2.1971677 0.63213512,2.057866 0.66098482,1.9287171 0.73590273,1.7919964 0.85016045,1.67317 0.76767071,1.6118711 0.68991941,1.5358991 0.62143225,1.4465994 0.47527761,1.256028 0.39862658,1.0403289 0.39287275,0.84565409 0.38699274,0.64818673 0.45395719,0.47182961 0.59503558,0.36366202 0.73611332,0.2554955 0.92376642,0.23658579 1.112942,0.29348256 c 0.1863842,0.0560082 0.3748829,0.18612949 0.5210794,0.37674384 0.04992,0.0651036 0.091707,0.13304065 0.1252572,0.20186627 0.033244,0.0683604 0.058634,0.13794783 0.075933,0.20690023 0.016794,-0.010576 0.034179,-0.020263 0.052112,-0.029019 -0.04357,-0.0540204 -0.069669,-0.12276114 -0.069669,-0.19750927 0,-0.12064549 0.068788,-0.22970168 0.1755964,-0.28253693 C 2.0165997,0.34098733 2.0426557,0.04487225 1.7434569,0.07304503 1.5405333,0.09216567 1.5427328,0.32694285 1.7740043,0.3159445 1.8913082,0.31031832 1.9044221,0.16132942 1.7552654,0.16860578 c -0.037478,0.001861 -0.057022,0.0516082 0.00943,0.0516082 l 0.00267,0.0439526 c -0.023649,0.002157 -0.046149,-0.003215 -0.063373,-0.013706 h 4.23e-5 C 1.6073735,0.19178762 1.7291655,0.06902649 1.8593674,0.1483433 2.0196503,0.24593481 1.818548,0.4450515 1.6237443,0.32639379 1.3998383,0.19001151 1.6803907,-0.08546073 1.9396577,0.07245299 2.085389,0.16120307 2.0603032,0.39407724 2.0459234,0.54953793 c 0.027582,-0.007911 0.056689,-0.0121405 0.086807,-0.0121405 0.033287,0 0.065361,0.005203 0.095478,0.0147633 -0.022543,-0.24057323 -0.036081,-0.5551747 0.3075368,-0.5228136 0.2665036,0.02508527 0.2602856,0.34446762 -0.041077,0.33033825 -0.1941247,-0.009095 -0.1733551,-0.25897472 0.029194,-0.2348194 0.084228,0.010068 0.104192,0.0885386 0.045988,0.1255956 -0.018363,0.0117172 -0.041797,0.0156519 -0.063287,0.013706 l 0.00262,-0.0439526 c 0.091288,0 0.025379,-0.0914574 -0.065779,-0.0358725 -0.1057178,0.0644267 0.0404,0.18985255 0.1778388,0.10605194 C 2.7907498,0.18705025 2.56549,-0.01481602 2.3631584,0.10845227 c -0.1289372,0.078513 -0.096531,0.32678495 -0.082069,0.46608659 0.1019034,0.0544857 0.1667126,0.16095986 0.1667126,0.27792527 0,0.0747481 -0.026142,0.14353184 -0.069712,0.19755027 z M 0.68140203,2.0686946 c -0.0276237,0.1235649 -0.009222,0.2386274 0.0620994,0.318028 0.0745784,0.083036 0.19412466,0.1126514 0.32695367,0.093447 0.1363404,-0.01976 0.2861321,-0.090826 0.4169303,-0.2082959 0.053939,-0.048437 0.1003454,-0.1009364 0.1385818,-0.1551641 0.036124,-0.051231 0.065145,-0.1040631 0.086377,-0.156561 C 1.6658947,1.9141612 1.6258812,1.8525324 1.5990171,1.792928 1.3697388,1.9143772 1.0970161,1.8387437 0.89189313,1.7027364 0.78106084,1.8160636 0.70872491,1.9463977 0.68140203,2.0686946 Z M 2.5589859,1.9536321 c 0.021189,0.053853 0.050253,0.1079978 0.08685,0.160241 0.038542,0.055121 0.085657,0.1086318 0.1406125,0.1579986 0.1308412,0.1174737 0.280633,0.1885407 0.4169733,0.208296 0.1327871,0.019201 0.2523334,-0.010406 0.3269537,-0.093447 0.071281,-0.079404 0.089719,-0.1944631 0.062105,-0.317986 C 3.5651132,1.9463966 3.4928117,1.8161055 3.3819837,1.7027353 3.1996192,1.8475361 2.8785021,1.9067172 2.6680486,1.7892414 2.6429166,1.846092 2.6015492,1.9083225 2.5589859,1.9536321 Z M 1.9242828,1.0886363 c -0.034093,0.023435 -0.06853,0.034477 -0.1073618,0.065314 0.209523,0.022714 0.4204418,0.0228 0.629838,-0.00152 C 2.4144817,1.1270915 2.3790347,1.105602 2.3412131,1.0885941 2.2211597,1.1932922 2.0442513,1.1947298 1.9242828,1.0886363 Z M 2.1327055,0.58807404 c -0.1461546,0 -0.264389,0.11823437 -0.264389,0.26438901 0,0.0730139 0.02957,0.13917485 0.077373,0.18701805 0.047846,0.047801 0.1140041,0.077371 0.1870181,0.077371 0.073011,0 0.1391318,-0.02957 0.187018,-0.077371 0.047761,-0.0478443 0.077373,-0.11400412 0.077373,-0.18701805 0,-0.14615464 -0.1182773,-0.26438901 -0.2643931,-0.26438901 z m -0.45771,1.18814586 c 0.3049989,0.047846 0.6122402,0.04877 0.9168587,-0.00305 0.023477,-0.048899 0.039294,-0.1021612 0.046149,-0.1581683 -0.3353303,0.059311 -0.6743826,0.058204 -1.01022,0.00321 0.00715,0.056056 0.023391,0.1092249 0.047213,0.1579993 z M 2.4575446,1.945133 C 2.2422259,1.969459 2.0253846,1.969416 1.8099391,1.946743 1.9972537,2.100467 2.2709907,2.099832 2.4575446,1.945133 Z M 1.6312976,1.4650449 c 0.3337648,0.057151 0.6690102,0.058591 1.0021829,-0.0033 -0.01125,-0.06218 -0.033889,-0.1205617 -0.065565,-0.17272 -0.2893899,0.044161 -0.5822053,0.04357 -0.8719337,0.00254 -0.031181,0.052542 -0.053724,0.1110429 -0.064685,0.1734815 z"
           id="path6"
           style="fill:#000000;stroke-width:10.7448" /><path
           id="rect1241"
           style="fill:#ffff00;stroke-width:0.516484;stroke-linecap:round;stroke-linejoin:round;paint-order:stroke markers fill"
           d="m 1.6815938,1.2880531 c 0.3053978,0.043867 0.605566,0.042485 0.9006806,-0.00262 0.042903,0.062143 0.05179,0.1198156 0.067727,0.1784145 -0.3492496,0.068546 -0.693425,0.055163 -1.0352239,0.00341 0.013424,-0.058082 0.015252,-0.1139981 0.066817,-0.1791995 z"
           sodipodi:nodetypes="ccccc" /><path
           id="path1748"
           style="fill:#ffff00;stroke-width:0.53763;stroke-linecap:round;stroke-linejoin:round;paint-order:stroke markers fill"
           d="m 1.5897685,1.6109694 c 0.3104089,0.060434 0.770405,0.060552 1.0862494,-0.00345 -0.049622,0.1700721 -0.086706,0.2278764 -0.049622,0.1700721 -0.3621397,0.064112 -0.6289346,0.051322 -0.9858616,0.00328 0.041615,0.094068 -0.029087,-0.048707 -0.050766,-0.1699 z"
           sodipodi:nodetypes="ccccc" /><path
           id="path2385"
           style="fill:#ffff00;stroke-width:0.5;stroke-linecap:round;stroke-linejoin:round;paint-order:stroke markers fill"
           d="M 1.8099391,1.946743 C 2.0196665,1.9711858 2.2541119,1.9616103 2.4575446,1.945133 2.3692996,2.0251389 2.2439438,2.0675946 2.1262988,2.0669641 2.0134896,2.0663595 1.8924087,2.017671 1.8099391,1.946743 Z"
           sodipodi:nodetypes="ccac" /></g></g><text
       xml:space="preserve"
       style="font-size:21.3333px;line-height:1.25;font-family:DINPro;-inkscape-font-specification:DINPro;fill:#000000;stroke:#ffff00;stroke-width:0.5;stroke-miterlimit:4;stroke-dasharray:none"
       x="7.0855393"
       y="63.396286"
       id="text8380"><tspan
         sodipodi:role="line"
         id="tspan8378"
         x="7.0855393"
         y="63.396286"
         style="font-style:normal;font-variant:normal;font-weight:normal;font-stretch:normal;font-size:21.3333px;font-family:Poppins;-inkscape-font-specification:Poppins;fill:#000000;stroke:#ffff00;stroke-width:0.5;stroke-miterlimit:4;stroke-dasharray:none">ApiCo</tspan></text></g></svg>
